<?xml version="1.0" encoding="utf-8"?>
<!-- Generator: Adobe Illustrator 27.8.1, SVG Export Plug-In . SVG Version: 6.00 Build 0)  -->
<svg version="1.1" id="_x32_" xmlns="http://www.w3.org/2000/svg" xmlns:xlink="http://www.w3.org/1999/xlink" x="0px" y="0px"
	 viewBox="0 0 32 32" style="enable-background:new 0 0 32 32;" xml:space="preserve">
<g>
	<path d="M8.6,11.6c-0.2,0.1-0.2,0.4-0.1,0.6c0.1,0.2,0.4,0.2,0.6,0.1c0.2-0.1,0.2-0.4,0.1-0.6C9,11.5,8.8,11.5,8.6,11.6z"/>
	<path d="M10.7,9.9c-0.2,0.1-0.2,0.4-0.1,0.6c0.1,0.2,0.4,0.2,0.6,0.1c0.2-0.1,0.2-0.4,0.1-0.6C11.2,9.8,10.9,9.8,10.7,9.9z"/>
	<path d="M10.8,13.5c-0.1,0.1-0.2,0.3-0.1,0.5c0.1,0.1,0.3,0.2,0.5,0.1c0.1-0.1,0.2-0.3,0.1-0.5C11.1,13.4,10.9,13.4,10.8,13.5z"/>
	<path d="M12.4,12.7c-0.1-0.1-0.3-0.2-0.5-0.1c-0.1,0.1-0.2,0.3-0.1,0.5c0.1,0.1,0.3,0.2,0.5,0.1C12.5,13,12.5,12.8,12.4,12.7z"/>
	<path d="M28.5,18.6L28.5,18.6c-0.2-0.2-0.6-0.3-0.9-0.2l-1,0.3c-0.2,0.1-0.5,0.1-0.7,0l-2.1-1.3c-0.1-0.1-0.2-0.1-0.3-0.1l-2.8,0.1
		c-0.2,0-0.4-0.1-0.5-0.2l-4.5-4.5c-0.2-0.2-0.3-0.5-0.2-0.7L17.2,5c0-0.1,0-0.1,0-0.2v-4c0-0.4-0.3-0.8-0.8-0.8h-0.9
		c-0.4,0-0.8,0.3-0.8,0.8v3.8c0,0.1,0,0.1,0,0.2l-0.3,1.3c0,0,0-0.1-0.1-0.1c-0.8-1-2.2-1.2-3.3-0.4c-0.4,0.3-0.7,0.7-0.8,1.2
		C9.3,6.6,8.2,6.9,7.2,7.6c-0.9,0.7-1.5,1.7-1.7,2.7c-0.5,0-1,0.2-1.4,0.5c-1,0.8-1.2,2.2-0.4,3.3c0.8,1,2.2,1.2,3.3,0.4
		c0,0,0,0,0,0c0.6,0.5,1.3,0.8,2,1c0,0,0,0.1,0.1,0.1c0.1,0.1,0.2,0.2,0.3,0.3l-1.3,5.6c0,0.1,0,0.1-0.1,0.2l-1.9,3.4
		c-0.2,0.3-0.1,0.8,0.2,1l0.6,0.4c0.2,0.1,0.4,0.2,0.6,0.1c0.2,0,0.4-0.2,0.5-0.3l1.9-3c0,0,0-0.1,0.1-0.1l1.1-2.8
		c0.1-0.2,0.3-0.4,0.6-0.5c0.3,0,0.5,0,0.7,0.2l1.5,1.7c0.2,0.2,0.2,0.5,0.2,0.8l-0.4,2.9c0,0.1-0.1,0.2,0,0.3l0.4,3.4
		c0,0.2,0,0.4-0.2,0.6l-0.6,0.7c-0.1,0.2-0.2,0.4-0.2,0.6c0,0.2,0.2,0.4,0.4,0.5l0.7,0.4c0.3,0.2,0.7,0.1,0.9-0.1l1.2-1.2
		c0.1-0.1,0.2-0.3,0.2-0.5v-3.8c0-0.1,0-0.2,0.1-0.3l1.1-3.7c0.1-0.2,1.4-1.4,1.7-1.4l3.2-0.7c0.1,0,0.3,0,0.4,0l3,1.3
		c0.3,0.1,0.5,0.1,0.8-0.1l2-1.7c0.2-0.1,0.3-0.3,0.3-0.5C28.7,19,28.6,18.8,28.5,18.6z M4.7,13.4c-0.4-0.5-0.3-1.3,0.2-1.7
		c0.2-0.1,0.4-0.2,0.6-0.2c0.1,0.8,0.3,1.5,0.8,2.2C5.8,14,5.1,13.9,4.7,13.4z M11.8,6.4c0.5-0.4,1.3-0.3,1.7,0.2
		c0.4,0.5,0.3,1.2-0.2,1.6c-0.5-0.6-1.2-1.1-1.9-1.3C11.5,6.8,11.6,6.6,11.8,6.4z M10.3,15.5c-0.7-0.4-1-1.2-1.1-1.8
		c-0.7,0.1-1.4-0.1-1.8-0.7c-0.6-0.8-0.4-1.9,0.3-2.5c0.4-0.3,1-0.4,1.5-0.3c0-0.5,0.3-1,0.7-1.3c0.8-0.6,1.9-0.4,2.5,0.3
		c0.4,0.6,0.5,1.3,0.2,1.9c0.5,0.2,1.2,0.7,1.4,1.5L12.2,14l-0.1,0.1L10.3,15.5z M13.2,15.4c-0.6,0.5-1.4,0.6-2.1,0.4l3-2.3
		C14.1,14.2,13.8,14.9,13.2,15.4z"/>
</g>
</svg>
